<svg width="64" height="64" viewBox="0 0 64 64" fill="none" xmlns="http://www.w3.org/2000/svg">
<circle cx="32" cy="32" r="32" fill="white"/>
<path fill-rule="evenodd" clip-rule="evenodd" d="M35.417 46.0834H29.5837C24.0843 46.0834 21.3339 46.0834 19.6262 44.3742C17.917 42.6665 17.917 39.9161 17.917 34.4167V28.5834C17.917 23.084 17.917 20.3336 19.6262 18.6259C21.3339 16.9167 24.0989 16.9167 29.6274 16.9167C30.5112 16.9167 31.2184 16.9167 31.8149 16.9415C31.7959 17.0581 31.7857 17.1763 31.7857 17.2973L31.7712 21.4302C31.7712 23.03 31.7712 24.4446 31.9243 25.5836C32.0905 26.8188 32.4712 28.054 33.4803 29.0631C34.4866 30.0694 35.7232 30.4515 36.9585 30.6177C38.0974 30.7709 39.512 30.7709 41.1118 30.7709H47.021C47.0837 31.5496 47.0837 32.5063 47.0837 33.7794V34.4167C47.0837 39.9161 47.0837 42.6665 45.3745 44.3742C43.6668 46.0834 40.9164 46.0834 35.417 46.0834Z" fill="black"/>
<path d="M43.2223 25.1082L37.4473 19.9121C35.8038 18.4319 34.9827 17.6911 33.9721 17.3046L33.959 21.2917C33.959 24.729 33.959 26.4484 35.0265 27.5159C36.094 28.5834 37.8134 28.5834 41.2507 28.5834H46.4715C45.9436 27.5567 44.9957 26.705 43.2223 25.1082Z" fill="black"/>
</svg>
