<svg width="56" height="45" viewBox="0 0 56 45" fill="none" xmlns="http://www.w3.org/2000/svg">
<path d="M28.0004 38.25C31.0932 38.25 33.6004 36.2353 33.6004 33.75C33.6004 31.2647 31.0932 29.25 28.0004 29.25C24.9076 29.25 22.4004 31.2647 22.4004 33.75C22.4004 36.2353 24.9076 38.25 28.0004 38.25Z" fill="white"/>
<path d="M28.0004 27C31.0932 27 33.6004 24.9853 33.6004 22.5C33.6004 20.0147 31.0932 18 28.0004 18C24.9076 18 22.4004 20.0147 22.4004 22.5C22.4004 24.9853 24.9076 27 28.0004 27Z" fill="white"/>
<path d="M28.0004 15.75C31.0932 15.75 33.6004 13.7353 33.6004 11.25C33.6004 8.76472 31.0932 6.75 28.0004 6.75C24.9076 6.75 22.4004 8.76472 22.4004 11.25C22.4004 13.7353 24.9076 15.75 28.0004 15.75Z" fill="white"/>
</svg>
